<svg xmlns="http://www.w3.org/2000/svg" x="0px" y="0px"
width="100" height="100"
viewBox="0 0 226 226"
style=" fill:#000000;"><g fill="none" fill-rule="nonzero" stroke="none" stroke-width="1" stroke-linecap="butt" stroke-linejoin="miter" stroke-miterlimit="10" stroke-dasharray="" stroke-dashoffset="0" font-family="none" font-weight="none" font-size="none" text-anchor="none" style="mix-blend-mode: normal"><path d="M0,226v-226h226v226z" fill="none"></path><g fill="#01996d"><path d="M29.93286,21.1875l-0.78625,6.16589c0,0 -1.38576,10.70839 -0.70349,24.36011c0.62832,12.57241 2.86162,27.90993 10.27649,40.76111c-3.198,5.81881 -6.04692,11.9711 -8.41431,18.4563l-0.04138,0.11035l-0.02759,0.11035c-1.41064,4.30039 -2.9175,8.41836 -4.71753,12.24902h0.01379l-6.34521,13.4491l5.31067,3.32434c0,0 26.50882,16.86614 47.18909,33.62964l0.80005,2.34497c5.83868,17.15889 22.2149,28.66382 40.51282,28.66382c18.29791,0 34.67418,-11.50485 40.51282,-28.66382l0.80005,-2.34497c20.68026,-16.7635 47.18909,-33.62964 47.18909,-33.62964l5.31067,-3.32434l-6.34521,-13.4491h0.01379c-1.80003,-3.83066 -3.3069,-7.94863 -4.71753,-12.24902l-0.02759,-0.11035l-0.04139,-0.11035c-2.36739,-6.48519 -5.21629,-12.63749 -8.4143,-18.4563c7.41488,-12.85118 9.64817,-28.1887 10.27649,-40.76111c0.68224,-13.65172 -0.70349,-24.36011 -0.70349,-24.36011l-0.78625,-6.16589h-6.20728c-28.68117,0 -44.39025,16.5857 -51.07897,26.04297c-8.1462,-3.13628 -16.78058,-4.85547 -25.78089,-4.85547c-9.0003,0 -17.63469,1.71918 -25.78089,4.85547c-6.68872,-9.45727 -22.3978,-26.04297 -51.07898,-26.04297zM42.94055,36.56775c17.08549,2.16989 26.75575,10.95445 31.51917,16.95276c-10.08696,6.16862 -19.10573,14.68718 -26.74646,24.91187c-3.19047,-8.56319 -4.7186,-18.61139 -5.15894,-27.42237c-0.40772,-8.15835 0.07283,-10.68497 0.38623,-14.44226zM183.05945,36.56775c0.31336,3.75729 0.79393,6.28391 0.38623,14.44226c-0.44035,8.81098 -1.96847,18.85918 -5.15893,27.42237c-7.64074,-10.22468 -16.6595,-18.74325 -26.74646,-24.91187c4.76342,-5.99831 14.43367,-14.78287 31.51917,-16.95276zM113,56.5c29.69432,0 56.33186,23.40549 69.42493,59.27258c1.48103,4.50063 3.1346,9.09935 5.26929,13.64221l1.15869,2.45532c-4.85115,3.06976 -25.19485,15.7229 -44.99584,32.07093l-1.57252,1.29663l-0.66211,2.00013l-1.48974,4.35888c-3.86524,11.35941 -14.73698,19.09082 -27.13269,19.09082c-12.39571,0 -23.26745,-7.73141 -27.13269,-19.09082l-1.48974,-4.35888l-0.66211,-2.00013l-1.57252,-1.29663c-19.80099,-16.34802 -40.14469,-29.00117 -44.99585,-32.07093l1.15869,-2.45532c2.13469,-4.54287 3.78826,-9.14158 5.26929,-13.64221c13.09306,-35.8671 39.7306,-59.27258 69.42493,-59.27258zM70.625,113c0,0 2.81948,21.1875 15.53198,21.1875h12.71802c0,0 -2.81948,-21.1875 -15.53198,-21.1875zM142.65698,113c-12.7125,0 -15.53198,21.1875 -15.53198,21.1875h12.71802c12.7125,0 15.53198,-21.1875 15.53198,-21.1875zM103.75805,155.375c-4.33638,0 -6.52067,5.85095 -3.44848,9.28332l9.24195,10.31787c1.90687,2.12581 4.99716,2.12581 6.89697,0l9.24195,-10.31787c3.07219,-3.43238 0.89495,-9.28332 -3.44848,-9.28332z"></path></g></g></svg>